<?xml version="1.0" encoding="UTF-8"?>
<svg id="Layer_1" data-name="Layer 1" xmlns="http://www.w3.org/2000/svg" viewBox="0 0 676 667">
  <defs>
    <style>
      .cls-1 {
        fill: #fff;
      }

      .cls-2 {
        fill: #e1e1e1;
      }
    </style>
  </defs>
  <circle class="cls-2" cx="335.5" cy="336.5" r="327.5"/>
  <g>
    <path d="M451.78,20.33c32.41,11.35,61.73,28.55,89.99,47.34,1.37.91,1.39,3.07,4.21,2.35l-.98,1.95c6.06,1.18,10.2,6.93,14.64,10.88,3.77,3.35,10.99,8.74,13.94,12.08,11.96,13.54,26.13,28.79,37.45,44.58,67.92,94.74,83.89,215.22,34.71,325-4.36,9.73-12.63,21.13-18.06,30.75-74.57,132.18-242.51,204.35-392.91,152.45-90.49-31.23-142.75-78.64-191.79-160C-29.96,366.68-1.05,210.27,89.47,108.97,176.2,11.91,324.99-24.07,451.78,20.33ZM621,192.99c1.07-.98-12.74-23.01-14.19-25.3C498.45-4.28,252.94-29.91,110.45,114.93c-18.89,19.2-43.41,51.43-55.62,75.4-.84,1.65-1.99,3.16-1.84,5.16.17,2.14,14.03-4.01,15.39-4.61,21.19-9.37,43.6-21.11,64.5-31.5,7.25-3.6,27.02-16.18,33.62-16.19,1.94,0,4.28.94,6.05,1.77,10.05,4.76,25.07,16.77,35.78,23.21,25.82,15.51,52.2,30.19,78.75,44.38,60.42-26.52,117.58-59.19,174.25-92.73,10.37-5.68,20.06,4.56,29,9.35,30.89,16.55,62.99,30.18,94.35,45.65,4.41,2.17,34.09,20.22,36.32,18.17ZM449.83,285.14c-1.84-1.1-18.78,7.51-22.62,8.57-12.5,3.45-27.78,2.02-40.58.16-10.08-1.46-26.29-7.74-34.97-7.5-13.17.37-32.39,9.74-47.11,10.67-12.3.78-22.43-2.29-33.81-6.28-3.44-1.21-7.76-4.54-11.31-4.69-5.25-.23-26.54,6.36-34.24,7.62-17.23,2.82-28.41,4.71-45.61.24-4.36-1.13-16.82-6.59-19.25-6.67-2.2-.07-7.88,3.81-10.79,4.79-13.34,4.5-25.16,4.07-38.23-.84-1.83-.69-3.69-2.65-5.07-2.99-4.21-1.05-18.4,6.16-24.18,7.35-10.4,2.15-21.97,1.75-32.26-.85-8.18-2.07-22-13.02-26.14-.54-1.39,4.18-2.86,18.79-2.71,23.31.17,4.94,2.17,5.2,6.5,5.57,145.33-.35,290.3.9,435,1.01,63.52.05,127.21.23,190.61-.48,1.61-5.38,1.05-27.29-2.03-31.09-1.01-1.24-2.3-1.76-3.78-2.21-12.62-3.92-19.09,5.52-30.2,7.3-8.76,1.4-21-.6-29.31-3.79-4.63-1.78-11.81-7.97-15.21-7.84-2.87.11-9.36,3.93-13.02,5.1-8.62,2.77-19.99,4.51-28.96,2.93-4.3-.76-9.33-6.05-11.94-5.94-5.56.23-15.1,6.78-21.36,7.76-9.47,1.48-30.6-.36-39.55-3.97-3.04-1.23-6.84-3.46-7.88-6.65ZM654,340c-.98.32-2.17-1-2.5-1H23.5c-3.67,3.33-3.23,20.1-1.02,23.02.77,1.01,1.82,1.05,2.97,1.03,169.69-.16,339.15.19,508.01-.09,39.64-.07,79.28.09,118.92.1.44-.12,1.62-3.29,1.62-3.56v-19.5ZM648.75,380.24c-1.14-1.12-3.64-1.16-5.21-1.28-199.92-2.82-400.21,3.88-600.09.09-5.84-.11-15.97-4.32-17.39,4.51-.77,4.81.22,18.79,6.38,19.49,119.62-.83,239.24.81,358.17.85,71.87.02,144.91-1.88,216.94-.95,11.31.14,23.62,2.5,35.01,1.1,4.18-.51,3.89-3.51,4.78-7.22.77-3.23,3.44-14.61,1.42-16.6ZM638.86,420.14l-5.31-1.19c-183.27.95-367.03-1.13-550,.09-15.01.1-30.03-.16-45.04-.04-6.84,1.36.09,18.16,2.61,21.4,2.91,3.74,13.89.65,18.35.56,65.05-1.35,130.2.89,195,1.1,124.33.4,248.87-.97,373.05.95,8.79.14,11.87-15.71,11.36-22.85ZM53.17,457.17c-1.24,2.91-2.63,4.53-1.73,7.84.55,2.04,7.68,14.81,9.07,15.99,3.29,2.76,12.61.05,16.95-.04,103.68-2.15,207.83,1.11,311.05,1.11,71.85,0,144.09-1.38,216.04-.11,4.18.07,5.22,2.64,9.01-.92,2.93-2.76,12.66-18.43,9.48-21.56-11.06-3.69-23.97.37-35.48-2.52l-534.37.21ZM78.69,497.19c-8.36,4.5,1.01,14.86,5.28,19.33,7.13,7.46,5.93,4.45,14.48,4.43,87.29-.21,174.94-.05,262,0,74.33.05,148.9-1.47,223.06,2.14,3.4-.28,9.39-7.66,11.47-10.62,15.08-21.5-10.93-11.83-23.44-15.52l-492.85.23ZM112.74,536.24c-5.22.57-7.4,4.96-5.21,9.75.75,1.63,13.47,13.29,15.52,14.47,6.43,3.7,17.34.63,24.41.5,126.28-2.28,252.79,1.85,379.1,0,7.03.09,15.2,3.74,21.79.89,3.7-1.6,19.75-16.96,19.66-20.38s-9.67-4.3-12.47-4.5c-25.35-1.81-54.23.35-80.08.08-120.73-1.27-241.84-1.41-362.72-.8ZM157.76,577.26c-3.39.66-7.8,1.37-6.37,5.77,1.59,4.89,30.39,20.7,36.2,20.87,4.18.12,10.34-2.49,14.92-2.89,7.67-.67,16.21.3,24.03.03,76.89-2.73,161.05-3.59,238-1.08,14.07.46,22.34,5.22,36.14-1.77,2.93-1.48,22.95-14.27,23.27-15.8-2.88-7.59-12.43-2.92-18.41-5.43l-347.78.31ZM456,621.99c4.01-4.41-16.8-6.97-18.45-7.03-5.46-.21-10.11,1.06-15,1.09-60.89.32-128.12-3.87-188.09-.09-5.3.33-18.72,1.17-9.16,7.25,4,2.55,12.69,5.08,17.49,6.51,56.55,16.84,120.1,19.67,177.21,3.78,12.2-3.39,23.62-8.83,36-11.51Z"/>
    <path d="M331.76,56.26c33.95-4.61,63.82,28.23,55.52,61.52-14.32,57.47-94.85,49.61-99.16-6.4-1.91-24.78,18.87-51.76,43.64-55.12ZM338.67,72.39c-39.54.08-45.36,55.74-11.63,67.07,51.35,17.25,61.09-67.17,11.63-67.07Z"/>
    <path class="cls-1" d="M338.67,72.39c49.46-.1,39.72,84.32-11.63,67.07-33.73-11.33-27.92-66.99,11.63-67.07Z"/>
  </g>
</svg>